HIERARCHY
ROOT Hips
{
    OFFSET 0.0 0.0 0.0
    CHANNELS 6 Xposition Yposition Zposition Zrotation Xrotation Yrotation
    JOINT LeftHipJoint
    {
        OFFSET 0.1 0.0 0.0
        CHANNELS 3 Zrotation Xrotation Yrotation
        JOINT LeftUpLeg
        {
            OFFSET 127.48182853698688 0.0 0.0
            CHANNELS 3 Zrotation Xrotation Yrotation
            JOINT LeftLeg
            {
                OFFSET 0.0 0.0 -436.980628633612
                CHANNELS 3 Zrotation Xrotation Yrotation
                JOINT LeftFoot
                {
                    OFFSET 0.0 0.0 -398.6909455803926
                    CHANNELS 3 Zrotation Xrotation Yrotation
                    End Site
                    {
                        OFFSET 0.0 -0.1 0.0
                    }
                }
            }
        }
    }
    JOINT LowerBack
    {
        OFFSET 0.0 0.0 0.1
        CHANNELS 3 Zrotation Xrotation Yrotation
        JOINT Spine
        {
            OFFSET 0.0 0.0 220.14942536126648
            CHANNELS 3 Zrotation Xrotation Yrotation
            JOINT Spine1
            {
                OFFSET 0.0 0.0 250.28777350346496
                CHANNELS 3 Zrotation Xrotation Yrotation
                JOINT LeftShoulder
                {
                    OFFSET 0.1 0.0 0.0
                    CHANNELS 3 Zrotation Xrotation Yrotation
                    JOINT LeftArm
                    {
                        OFFSET 138.82094453276414 0.0 0.0
                        CHANNELS 3 Zrotation Xrotation Yrotation
                        JOINT LeftForeArm
                        {
                            OFFSET 274.51699223350215 0.0 0.0
                            CHANNELS 3 Zrotation Xrotation Yrotation
                            JOINT LeftHand
                            {
                                OFFSET 253.87455484701093 0.0 0.0
                                CHANNELS 3 Zrotation Xrotation Yrotation
                                End Site
                                {
                                    OFFSET 0.1 0.0 0.0
                                }
                            }
                        }
                    }
                }
                JOINT Neck
                {
                    OFFSET 0.0 0.0 0.1
                    CHANNELS 3 Zrotation Xrotation Yrotation
                    JOINT Neck1
                    {
                        OFFSET 0.0 0.0 101.90277194970729
                        CHANNELS 3 Zrotation Xrotation Yrotation
                        End Site
                        {
                            OFFSET 0.0 0.0 111.72001915485924
                        }
                    }
                }
                JOINT RightShoulder
                {
                    OFFSET -0.1 0.0 0.0
                    CHANNELS 3 Zrotation Xrotation Yrotation
                    JOINT RightArm
                    {
                        OFFSET -138.82094453276414 0.0 0.0
                        CHANNELS 3 Zrotation Xrotation Yrotation
                        JOINT RightForeArm
                        {
                            OFFSET -274.51699223350215 0.0 0.0
                            CHANNELS 3 Zrotation Xrotation Yrotation
                            JOINT RightHand
                            {
                                OFFSET -253.87455484701093 0.0 0.0
                                CHANNELS 3 Zrotation Xrotation Yrotation
                                End Site
                                {
                                    OFFSET -0.1 0.0 0.0
                                }
                            }
                        }
                    }
                }
            }
        }
    }
    JOINT RightHipJoint
    {
        OFFSET -0.1 0.0 0.0
        CHANNELS 3 Zrotation Xrotation Yrotation
        JOINT RightUpLeg
        {
            OFFSET -127.48182853698688 0.0 0.0
            CHANNELS 3 Zrotation Xrotation Yrotation
            JOINT RightLeg
            {
                OFFSET 0.0 0.0 -436.980628633612
                CHANNELS 3 Zrotation Xrotation Yrotation
                JOINT RightFoot
                {
                    OFFSET 0.0 0.0 -398.6909455803926
                    CHANNELS 3 Zrotation Xrotation Yrotation
                    End Site
                    {
                        OFFSET 0.0 -0.1 0.0
                    }
                }
            }
        }
    }
}
MOTION
Frames: 6
Frame Time: 0.03333333333333333
0.0 0.0 830.830662637835 31.431318025689862 4.855669944884084 0.5354437768276676 0.0 0.0 -1.987846675914698e-16 0.27275373500204897 -17.640482103185956 2.6945809795080264 0.8042410599464669 24.066477453432967 -0.994664571023704 0.0 0.0 0.0 0.0 0.0 -1.987846675914698e-16 -0.1766578479441122 11.718340433701286 3.4448425539164758 -0.03247230578566179 3.576997263574741e-15 3.976707140670712e-15 0.0 0.0 0.0 -27.4195793276865 8.842847461342966 67.72036785176888 -120.84447970985514 -7.662785097304564e-15 -1.0279375267079412e-14 0.0 0.0 0.0 0.0 0.0 0.0 -6.809395583083337 -8.742943678622778 -2.738011806573446 0.0 0.0 0.0 20.57958742282318 1.6775059357746973 -67.52392345161063 118.9196771820306 -3.232348081751978e-15 5.4786529553816685e-15 0.0 0.0 0.0 0.0 0.0 -1.987846675914698e-16 0.1911182503577776 -12.766093465733526 -1.521168834647763 -1.07616300641643 24.195683054658737 0.7888896059182675 0.0 0.0 7.951386703658792e-16
0.0 0.0 830.830662637835 31.287993744328645 4.85373519644718 0.6674902617154103 0.0 0.0 1.987846675914698e-16 0.24095186678711492 -17.573381116805 2.633564021400561 0.8181702182333424 23.953965190302185 -1.038731422165184 0.0 0.0 3.975693351829396e-16 0.0 0.0 1.987846675914698e-16 -0.15621165626746844 11.691544416250993 3.380315186698616 -0.06782352231358237 -1.9869050873350147e-15 -1.5914536126800001e-15 0.0 0.0 7.951386703658791e-16 -27.671696854925464 8.932124784880159 67.6827954913315 -120.80963653157735 -5.155271718539573e-15 1.0243546191195676e-14 0.0 0.0 6.3611093629270335e-15 0.0 0.0 7.951386703658791e-16 -6.832119981485057 -8.749129866998482 -2.802159253996529 0.0 0.0 7.951386703658791e-16 20.426957828934523 1.7117887698684853 -67.4598262757812 118.99596297725655 -8.709503698794593e-15 2.2521034556430236e-15 0.0 0.0 0.0 0.0 0.0 1.987846675914698e-16 0.16989423172738724 -12.813957881788511 -1.5512823501085948 -1.0487643796411468 24.270291928809367 0.7411040244572006 0.0 0.0 -7.951386703658792e-16
0.0 0.0 830.830662637835 31.072751697251363 4.9460900243983525 0.79353240989616 -6.3611093629270335e-15 0.0 0.0 0.20491913696287484 -17.60283406938319 2.603996008118515 0.8544455786489428 23.85329472257214 -1.1131374295768757 0.0 0.0 3.975693351829396e-16 -6.3611093629270335e-15 0.0 0.0 -0.1317854539774554 11.633198271977875 3.2964188608106726 -0.08833870510609763 -4.374487333207361e-15 1.5869055175616418e-15 0.0 0.0 0.0 -27.978849130663487 9.023948307373574 67.58350635297163 -120.78128284022605 -4.147829289179158e-15 2.3571912039186355e-15 0.0 0.0 0.0 0.0 0.0 0.0 -6.772291768673684 -8.807835732893485 -2.893101203637298 0.0 0.0 0.0 20.184781130672025 1.684034614872389 -67.40735811442337 119.09156937752142 -2.934699129294021e-14 1.2261603085650774e-14 0.0 0.0 3.1805546814635168e-15 -6.3611093629270335e-15 0.0 0.0 0.14546606672040813 -12.95206298306873 -1.55694818446022 -1.0014085658392633 24.33611912776643 0.6674804678345914 0.0 0.0 0.0
0.0 0.0 830.830662637835 30.86849587063091 4.991249732409697 0.9693629607546744 0.0 0.0 1.987846675914698e-16 0.15414417207935788 -17.529913693099264 2.4724795727691653 0.8635939663489304 23.705425014618335 -1.1279272844939499 0.0 0.0 3.975693351829396e-16 0.0 0.0 1.987846675914698e-16 -0.09864282636907291 11.561470554440135 3.1552135895549234 -0.05054482716770814 1.1923571643418883e-15 7.95664680788352e-16 0.0 0.0 -7.951386703658792e-16 -28.352661901420177 9.151311497885873 67.47052207380794 -120.7426975252139 -7.291818978337602e-15 -3.170792723953646e-15 6.3611093629270335e-15 -3.531125038440127e-31 -6.3611093629270335e-15 0.0 0.0 -7.951386703658792e-16 -6.716356557606837 -8.790684744617458 -3.00981747038963 0.0 0.0 -7.951386703658792e-16 19.861479190013494 1.6618996404169766 -67.4873877313751 119.04322354924803 5.482134711876172e-15 3.226439419539799e-15 0.0 0.0 0.0 0.0 0.0 1.987846675914698e-16 0.10980426210582182 -13.027519989573968 -1.6944565087831391 -0.9893158398258389 24.313358400648205 0.7559642924525302 0.0 0.0 0.0
0.0 0.0 830.830662637835 30.671961647738655 5.101266207709906 1.1656538843442399 0.0 0.0 0.0 0.10737663104221071 -17.52234203602043 2.280737421815233 0.8406116318602774 23.53482953141639 -1.1006971324630854 -6.361109362927033e-15 -1.789062008323228e-15 3.9756933518293945e-16 0.0 0.0 0.0 -0.06772667134326035 11.450241528564087 2.9973404718382612 -0.011006248218772746 -4.771061113755117e-15 2.384957772963413e-15 0.0 0.0 7.951386703658792e-16 -28.669897208726944 9.277543250792629 67.27425975650702 -120.8260547673587 1.4579021044383223e-14 6.352192332724072e-15 0.0 0.0 0.0 0.0 0.0 7.951386703658792e-16 -6.69891422898114 -8.828897670715747 -3.131745638510729 0.0 0.0 7.951386703658792e-16 19.52654627731196 1.5377844468489958 -67.47800645964072 119.07078089445218 3.225120964939195e-15 -5.482910457834201e-15 3.1805546814635164e-15 6.361109362927033e-15 -1.7655625192200634e-31 0.0 0.0 0.0 0.07667025424241032 -13.19756773418096 -1.8589718775687114 -0.9918225520392736 24.23999182884848 0.8590930769122638 -3.1805546814635168e-15 -2.2069531490250793e-32 7.951386703658792e-16
0.0 0.0 830.830662637835 30.419937717283236 5.275905458938592 1.3262957144189134 1.551763932908259e-33 8.945310041616142e-16 -1.987846675914698e-16 0.07057259773306321 -17.56998456968741 2.139041119434518 0.8247489090441251 23.342706793438317 -1.0704512509214439 0.0 0.0 0.0 1.551763932908259e-33 8.945310041616142e-16 -1.987846675914698e-16 -0.04349124730299413 11.321685685678341 2.920291294834318 0.00932886441493381 -1.1926432695961117e-15 7.952357657314944e-16 0.0 0.0 0.0 -28.86089698259894 9.319361123798545 67.0332037139156 -120.82464331035133 1.8727820218340395e-14 3.9963912263475314e-15 3.531125038440127e-31 -6.361109362927033e-15 6.361109362927033e-15 0.0 0.0 0.0 -6.823057715357985 -8.86654134419628 -3.2912478819635287 0.0 0.0 0.0 19.23686989110689 1.361575686256853 -67.5612161552993 119.08051346464107 -1.4191023987494918e-14 -9.661261935864102e-16 0.0 0.0 0.0 1.551763932908259e-33 8.945310041616142e-16 -1.987846675914698e-16 0.05012227659256953 -13.424933346290034 -1.979616432618444 -0.9871823440656612 24.1344964513368 0.9439732222714922 0.0 0.0 -7.951386703658792e-16
